<svg width="96" height="96" viewBox="0 0 96 96" fill="none" xmlns="http://www.w3.org/2000/svg">
<circle cx="48" cy="48" r="43" fill="#8F2A85" stroke="#FAFAFA" stroke-width="10"/>
<path d="M32.02 52.8V55H21.7V53.26L27.26 47.98C27.8867 47.38 28.3067 46.86 28.52 46.42C28.7467 45.9667 28.86 45.52 28.86 45.08C28.86 44.4267 28.64 43.9267 28.2 43.58C27.76 43.2333 27.1133 43.06 26.26 43.06C24.8333 43.06 23.74 43.5467 22.98 44.52L21.16 43.12C21.7067 42.3867 22.44 41.82 23.36 41.42C24.2933 41.0067 25.3333 40.8 26.48 40.8C28 40.8 29.2133 41.16 30.12 41.88C31.0267 42.6 31.48 43.58 31.48 44.82C31.48 45.58 31.32 46.2933 31 46.96C30.68 47.6267 30.0667 48.3867 29.16 49.24L25.42 52.8H32.02ZM45.7077 51.82H43.2277V55H40.7077V51.82H33.0277V50.02L39.9277 41H42.7077L36.2077 49.62H40.7877V46.8H43.2277V49.62H45.7077V51.82ZM59.1492 44.2C60.4959 44.2 61.5759 44.5933 62.3892 45.38C63.2026 46.1667 63.6092 47.3333 63.6092 48.88V55H61.1092V49.2C61.1092 48.2667 60.8892 47.5667 60.4492 47.1C60.0092 46.62 59.3826 46.38 58.5692 46.38C57.6492 46.38 56.9226 46.66 56.3892 47.22C55.8559 47.7667 55.5892 48.56 55.5892 49.6V55H53.0892V40.16H55.5892V45.56C56.0026 45.12 56.5092 44.7867 57.1092 44.56C57.7226 44.32 58.4026 44.2 59.1492 44.2ZM70.0806 55.14C69.214 55.14 68.3673 55.0267 67.5406 54.8C66.714 54.5733 66.054 54.2867 65.5606 53.94L66.5206 52.04C67.0006 52.36 67.574 52.62 68.2406 52.82C68.9206 53.0067 69.5873 53.1 70.2406 53.1C71.734 53.1 72.4806 52.7067 72.4806 51.92C72.4806 51.5467 72.2873 51.2867 71.9006 51.14C71.5273 50.9933 70.9206 50.8533 70.0806 50.72C69.2006 50.5867 68.4806 50.4333 67.9206 50.26C67.374 50.0867 66.894 49.7867 66.4806 49.36C66.0806 48.92 65.8806 48.3133 65.8806 47.54C65.8806 46.5267 66.3006 45.72 67.1406 45.12C67.994 44.5067 69.1406 44.2 70.5806 44.2C71.314 44.2 72.0473 44.2867 72.7806 44.46C73.514 44.62 74.114 44.84 74.5806 45.12L73.6206 47.02C72.714 46.4867 71.694 46.22 70.5606 46.22C69.8273 46.22 69.2673 46.3333 68.8806 46.56C68.5073 46.7733 68.3206 47.06 68.3206 47.42C68.3206 47.82 68.5206 48.1067 68.9206 48.28C69.334 48.44 69.9673 48.5933 70.8206 48.74C71.674 48.8733 72.374 49.0267 72.9206 49.2C73.4673 49.3733 73.934 49.6667 74.3206 50.08C74.7206 50.4933 74.9206 51.08 74.9206 51.84C74.9206 52.84 74.4873 53.64 73.6206 54.24C72.754 54.84 71.574 55.14 70.0806 55.14Z" fill="white"/>
</svg>
