<svg width="100" height="100" viewBox="0 0 100 100" fill="none" xmlns="http://www.w3.org/2000/svg">
<circle cx="50" cy="50" r="50" fill="white"/>
<path fill-rule="evenodd" clip-rule="evenodd" d="M74.2074 65.803C74.2074 67.4636 72.8373 68.8146 71.1712 68.8146H68.0473V38.0767H71.1712C72.8373 38.0767 74.2074 39.4222 74.2074 41.0856V65.803ZM60.1963 68.8146V66.1428C62.1611 65.7783 63.6655 64.0437 63.6655 61.9885C63.6655 59.6401 61.761 57.7465 59.4318 57.7465C57.1053 57.7465 55.2008 59.6401 55.2008 61.9885C55.2008 64.0437 56.6942 65.7783 58.6563 66.1428V68.8146H48.9721V57.4259C50.0654 57.108 50.8766 56.0777 50.8766 54.8719V54.1403H51.6274C53.1017 54.1403 54.2992 52.9318 54.2992 51.4493C54.2992 51.0849 54.2197 50.7177 54.0827 50.3998C57.5053 47.9116 59.8428 43.3243 59.9469 38.0767H66.5182V68.8146H60.1963ZM59.4318 64.6822C57.9493 64.6822 56.7408 63.4738 56.7408 61.9885C56.7408 60.4841 57.9493 59.2976 59.4318 59.2976C60.917 59.2976 62.1255 60.4841 62.1255 61.9885C62.1255 63.4738 60.917 64.6822 59.4318 64.6822ZM53.8197 74.0842C51.537 74.0842 49.6215 72.4866 49.1063 70.3409H58.5302C58.0205 72.4866 56.0996 74.0842 53.8197 74.0842ZM34.2293 38.0767H36.4654C36.5695 43.3243 38.907 47.8897 42.3433 50.3751C42.1926 50.6958 42.1131 51.0849 42.1131 51.4493C42.1131 52.9318 43.3134 54.1403 44.7849 54.1403H45.5357V54.8719C45.5357 56.0777 46.3359 57.108 47.4402 57.4259V68.8146H34.2293V38.0767ZM26.54 65.803V41.0856C26.54 39.4222 27.8855 38.0767 29.5626 38.0767H32.6893V68.8146H29.5626C27.8855 68.8146 26.54 67.4636 26.54 65.803ZM53.077 49.2105C52.655 48.9393 52.1645 48.7775 51.6274 48.7775H44.7849C44.2478 48.7775 43.7683 48.9393 43.3463 49.2105C40.2415 47.043 38.1096 42.8914 37.9945 38.0767H58.4179C58.3055 42.8914 56.179 47.043 53.077 49.2105ZM48.2048 56.0119C47.58 56.0119 47.0758 55.5077 47.0758 54.8719V53.3648C47.0758 52.9318 46.725 52.5893 46.3003 52.5893H44.7849C44.1546 52.5893 43.6422 52.0851 43.6422 51.4493C43.6422 50.83 44.1546 50.3313 44.7849 50.3313H51.6274C52.2577 50.3313 52.7701 50.83 52.7701 51.4493C52.7701 52.0851 52.2577 52.5893 51.6274 52.5893H50.112C49.6763 52.5893 49.3365 52.9318 49.3365 53.3648V54.8719C49.3365 55.5077 48.8323 56.0119 48.2048 56.0119ZM40.5731 26.5291C41.3157 26.5291 41.9186 27.1484 41.9186 27.8993C41.9186 28.6282 41.3157 29.2201 40.5731 29.2201C39.8305 29.2201 39.2276 28.6282 39.2276 27.8993C39.2276 27.1484 39.8305 26.5291 40.5731 26.5291ZM54.4938 27.8993C54.4938 27.1484 55.0857 26.5291 55.8392 26.5291C56.5682 26.5291 57.1738 27.1484 57.1738 27.8993C57.1738 28.6282 56.5682 29.2201 55.8392 29.2201C55.0857 29.2201 54.4938 28.6282 54.4938 27.8993ZM71.1712 36.523H67.2827H59.9223C59.7633 34.0814 59.1249 31.7549 58.0507 29.6997C58.4644 29.2009 58.7138 28.5843 58.7138 27.8993C58.7138 26.3017 57.4259 25 55.8392 25C54.2417 25 52.9537 26.3017 52.9537 27.8993C52.9537 29.4749 54.2417 30.7739 55.8392 30.7739C56.1708 30.7739 56.4887 30.7053 56.7847 30.5902C57.6862 32.3714 58.2343 34.402 58.3713 36.523H38.041C38.1753 34.402 38.7261 32.3714 39.6277 30.5902C39.9209 30.7053 40.2415 30.7739 40.5731 30.7739C42.1707 30.7739 43.4586 29.4749 43.4586 27.8993C43.4586 26.3017 42.1707 25 40.5731 25C38.9865 25 37.6985 26.3017 37.6985 27.8993C37.6985 28.5843 37.9506 29.2009 38.3617 29.6997C37.2875 31.7549 36.649 34.0814 36.49 36.523H33.4538H29.5626C27.0415 36.523 25 38.5755 25 41.0856V65.803C25 68.3104 27.0415 70.3409 29.5626 70.3409H33.4538H47.5444C48.0705 73.3306 50.682 75.6132 53.8197 75.6132C56.9573 75.6132 59.5578 73.3306 60.0949 70.3409H67.2827H71.1712C73.695 70.3409 75.7365 68.3104 75.7365 65.803V41.0856C75.7365 38.5755 73.695 36.523 71.1712 36.523Z" fill="#8F2A85"/>
</svg>
