<svg width="43" height="51" viewBox="0 0 43 51" fill="none" xmlns="http://www.w3.org/2000/svg">
<path d="M40.1395 12.3555C39.0031 9.85777 37.4576 7.67793 35.4576 5.77057C33.5031 3.90863 31.1849 2.4554 28.6849 1.45631C26.094 0.411807 23.3213 -0.0423254 20.5031 0.00308788C17.6849 0.0939144 14.9122 0.684287 12.3667 1.86503C9.86673 2.95495 7.68491 4.54441 5.77582 6.49718C3.91218 8.49537 2.41218 10.766 1.45764 13.2638C0.412182 15.8977 -0.0423639 18.6679 0.00309069 21.529C0.0939998 24.3446 0.684909 27.1148 1.86673 29.6579C3.00309 32.1103 4.54854 34.3355 6.54854 36.1975C8.50309 38.0594 11.0485 39.5126 13.5485 40.5117C15.8213 41.42 17.9576 41.8741 20.8667 41.9649L21.0485 48.8678C21.0485 49.3219 21.094 49.7306 21.5485 49.9123C21.6849 49.9577 21.7304 50.0031 21.8667 50.0031C22.1849 50.0031 22.4122 49.8669 22.594 49.6398L35.7304 36.0158C35.9122 35.8342 36.094 35.6525 36.2304 35.4708C38.094 33.4727 39.5485 31.202 40.5485 28.7043C41.594 26.1157 42.0485 23.3455 42.0031 20.4845C41.9576 17.6234 41.3213 14.8986 40.1395 12.3555ZM21.4122 37.9686C12.0485 38.2411 4.23036 30.7933 4.00309 21.3927C3.77582 12.0376 11.1849 4.22652 20.594 3.99946C29.9576 3.77239 37.8213 11.2202 38.0485 20.5753C38.2758 29.9304 30.8213 37.7415 21.4122 37.9686Z" fill="#5F249F"/>
<path d="M30.14 17.9872H24.4581V12.356C24.4581 10.4486 22.8218 8.90458 20.9127 8.90458C19.0036 8.90458 17.3672 10.4486 17.3672 12.356V17.9418H11.9127C10.0036 17.9418 8.45815 19.6675 8.45815 21.5749C8.45815 23.4822 10.0036 25.2079 11.9581 25.2079H17.4127V30.5667C17.4127 32.4741 19.0036 34.0181 20.9581 34.0181C22.8672 34.0181 24.5036 32.4741 24.5036 30.5667V25.2079H30.1854C32.0945 25.2079 33.64 23.4822 33.64 21.5749C33.5945 19.6675 32.0491 17.9872 30.14 17.9872Z" fill="#7ACC00"/>
</svg>
