<svg width="100" height="100" viewBox="0 0 100 100" fill="none" xmlns="http://www.w3.org/2000/svg">
<circle cx="50" cy="50" r="50" fill="white"/>
<path fill-rule="evenodd" clip-rule="evenodd" d="M66.5423 47.2733L69.5119 50.8177L66.5423 54.3849H53.7018V47.2733H66.5423ZM48.7246 72.4844V30.2074C48.7246 29.2143 49.5165 28.4314 50.4987 28.4314C51.4835 28.4314 52.2856 29.2143 52.2856 30.2074V72.4844H48.7246ZM31.615 54.3849L28.6453 50.8177L31.615 47.2733H47.2981V54.3849H31.615ZM34.4577 40.1642L31.4881 36.5996L34.4577 33.0551H47.2981V40.1642H34.4577ZM69.3952 33.0551L72.3648 36.5996L69.3952 40.1642H53.7018V33.0551H69.3952ZM69.7226 41.5779C69.9333 41.5779 70.1338 41.4943 70.2708 41.3246L73.8344 37.0657C74.0552 36.8098 74.0552 36.4323 73.8344 36.1561L70.2708 31.8947C70.1338 31.725 69.9333 31.6414 69.7226 31.6414H53.7018V30.2074C53.7018 28.4314 52.2653 27 50.4987 27C48.7347 27 47.2981 28.4314 47.2981 30.2074V31.6414H34.1303C33.9171 31.6414 33.7089 31.725 33.5795 31.8947L30.021 36.1561C29.7977 36.4323 29.7977 36.8098 30.021 37.0657L33.5795 41.3246C33.7089 41.4943 33.9171 41.5779 34.1303 41.5779H47.2981V45.8393H31.2774C31.0667 45.8393 30.8637 45.9457 30.7292 46.1129L27.1656 50.3769C26.9448 50.6277 26.9448 51.028 27.1656 51.2839L30.7292 55.5453C30.8637 55.7125 31.0667 55.7961 31.2774 55.7961H47.2981V72.4844H41.9604C41.5721 72.4844 41.2421 72.8012 41.2421 73.2015C41.2421 73.6043 41.5721 73.8982 41.9604 73.8982H48.0063H52.9937H59.0497C59.438 73.8982 59.7579 73.6043 59.7579 73.2015C59.7579 72.8012 59.438 72.4844 59.0497 72.4844H53.7018V55.7961H66.8799C67.0931 55.7961 67.2911 55.7125 67.4307 55.5453L70.9891 51.2839C71.2023 51.028 71.2023 50.6277 70.9891 50.3769L67.4307 46.1129C67.2911 45.9457 67.0931 45.8393 66.8799 45.8393H53.7018V41.5779H69.7226Z" fill="#8F2A85"/>
</svg>
