<svg width="51" height="51" viewBox="0 0 51 51" fill="none" xmlns="http://www.w3.org/2000/svg">
<path fill-rule="evenodd" clip-rule="evenodd" d="M49.2074 40.803C49.2074 42.4636 47.8373 43.8146 46.1712 43.8146H43.0473V13.0767H46.1712C47.8373 13.0767 49.2074 14.4222 49.2074 16.0856V40.803ZM35.1963 43.8146V41.1428C37.1611 40.7783 38.6655 39.0437 38.6655 36.9885C38.6655 34.6401 36.761 32.7465 34.4318 32.7465C32.1053 32.7465 30.2008 34.6401 30.2008 36.9885C30.2008 39.0437 31.6942 40.7783 33.6563 41.1428V43.8146H23.9721V32.4259C25.0654 32.108 25.8766 31.0777 25.8766 29.8719V29.1403H26.6274C28.1017 29.1403 29.2992 27.9318 29.2992 26.4493C29.2992 26.0849 29.2197 25.7177 29.0827 25.3998C32.5053 22.9116 34.8428 18.3243 34.9469 13.0767H41.5182V43.8146H35.1963ZM34.4318 39.6822C32.9493 39.6822 31.7408 38.4738 31.7408 36.9885C31.7408 35.4841 32.9493 34.2976 34.4318 34.2976C35.917 34.2976 37.1255 35.4841 37.1255 36.9885C37.1255 38.4738 35.917 39.6822 34.4318 39.6822ZM28.8197 49.0842C26.537 49.0842 24.6215 47.4866 24.1063 45.3409H33.5302C33.0205 47.4866 31.0996 49.0842 28.8197 49.0842ZM9.2293 13.0767H11.4654C11.5695 18.3243 13.907 22.8897 17.3433 25.3751C17.1926 25.6958 17.1131 26.0849 17.1131 26.4493C17.1131 27.9318 18.3134 29.1403 19.7849 29.1403H20.5357V29.8719C20.5357 31.0777 21.3359 32.108 22.4402 32.4259V43.8146H9.2293V13.0767ZM1.54003 40.803V16.0856C1.54003 14.4222 2.88551 13.0767 4.56257 13.0767H7.68926V43.8146H4.56257C2.88551 43.8146 1.54003 42.4636 1.54003 40.803ZM28.077 24.2105C27.655 23.9393 27.1645 23.7775 26.6274 23.7775H19.7849C19.2478 23.7775 18.7683 23.9393 18.3463 24.2105C15.2415 22.043 13.1096 17.8914 12.9945 13.0767H33.4179C33.3055 17.8914 31.179 22.043 28.077 24.2105ZM23.2048 31.0119C22.58 31.0119 22.0758 30.5077 22.0758 29.8719V28.3648C22.0758 27.9318 21.725 27.5893 21.3003 27.5893H19.7849C19.1546 27.5893 18.6422 27.0851 18.6422 26.4493C18.6422 25.83 19.1546 25.3313 19.7849 25.3313H26.6274C27.2577 25.3313 27.7701 25.83 27.7701 26.4493C27.7701 27.0851 27.2577 27.5893 26.6274 27.5893H25.112C24.6763 27.5893 24.3365 27.9318 24.3365 28.3648V29.8719C24.3365 30.5077 23.8323 31.0119 23.2048 31.0119ZM15.5731 1.52912C16.3157 1.52912 16.9186 2.14843 16.9186 2.89927C16.9186 3.62819 16.3157 4.22007 15.5731 4.22007C14.8305 4.22007 14.2276 3.62819 14.2276 2.89927C14.2276 2.14843 14.8305 1.52912 15.5731 1.52912ZM29.4938 2.89927C29.4938 2.14843 30.0857 1.52912 30.8392 1.52912C31.5682 1.52912 32.1738 2.14843 32.1738 2.89927C32.1738 3.62819 31.5682 4.22007 30.8392 4.22007C30.0857 4.22007 29.4938 3.62819 29.4938 2.89927ZM46.1712 11.523H42.2827H34.9223C34.7633 9.08138 34.1249 6.7549 33.0507 4.69968C33.4644 4.20094 33.7138 3.58434 33.7138 2.89927C33.7138 1.30168 32.4259 0 30.8392 0C29.2417 0 27.9537 1.30168 27.9537 2.89927C27.9537 4.47494 29.2417 5.77387 30.8392 5.77387C31.1708 5.77387 31.4887 5.70531 31.7847 5.59022C32.6862 7.37141 33.2343 9.40199 33.3713 11.523H13.041C13.1753 9.40199 13.7261 7.37141 14.6277 5.59022C14.9209 5.70531 15.2415 5.77387 15.5731 5.77387C17.1707 5.77387 18.4586 4.47494 18.4586 2.89927C18.4586 1.30168 17.1707 0 15.5731 0C13.9865 0 12.6985 1.30168 12.6985 2.89927C12.6985 3.58434 12.9506 4.20094 13.3617 4.69968C12.2875 6.7549 11.649 9.08138 11.49 11.523H8.4538H4.56257C2.0415 11.523 0 13.5755 0 16.0856V40.803C0 43.3104 2.0415 45.3409 4.56257 45.3409H8.4538H22.5444C23.0705 48.3306 25.682 50.6132 28.8197 50.6132C31.9573 50.6132 34.5578 48.3306 35.0949 45.3409H42.2827H46.1712C48.695 45.3409 50.7365 43.3104 50.7365 40.803V16.0856C50.7365 13.5755 48.695 11.523 46.1712 11.523Z" fill="#8F2A85"/>
</svg>
