<svg width="100" height="100" viewBox="0 0 100 100" fill="none" xmlns="http://www.w3.org/2000/svg">
<circle cx="50" cy="50" r="50" fill="white"/>
<path fill-rule="evenodd" clip-rule="evenodd" d="M45.0258 47.2168L47.2184 46.1306L49.411 47.2168V52.5932H45.0258V47.2168ZM53.0689 46.1306L55.2641 47.2168V52.5932H50.8763V47.2168L53.0689 46.1306ZM44.2984 54.0702H50.1489H56.0019C56.4008 54.0702 56.7293 53.7446 56.7293 53.333V46.7584C56.7293 46.5005 56.5755 46.24 56.3252 46.1098L53.3948 44.6563C53.1888 44.5469 52.949 44.5469 52.7456 44.6563L50.1489 45.9352L47.5443 44.6563C47.3383 44.5469 47.1011 44.5469 46.8925 44.6563L43.9621 46.1098C43.7222 46.24 43.5605 46.5005 43.5605 46.7584V53.333C43.5605 53.7446 43.8864 54.0702 44.2984 54.0702Z" fill="#8F2A85"/>
<path fill-rule="evenodd" clip-rule="evenodd" d="M45.0258 33.6356L47.2184 32.552L49.411 33.6356V39.0146H45.0258V33.6356ZM53.0689 32.552L55.2641 33.6356V39.0146H50.8763V33.6356L53.0689 32.552ZM44.2984 40.4915H50.1489H56.0019C56.4008 40.4915 56.7293 40.1659 56.7293 39.7544V33.1798C56.7293 32.8984 56.5755 32.6614 56.3252 32.5312L53.3948 31.0777C53.1888 30.9709 52.949 30.9709 52.7456 31.0777L50.1489 32.3801L47.5443 31.0777C47.3383 30.9709 47.1011 30.9709 46.8925 31.0777L43.9621 32.5312C43.7222 32.6614 43.5605 32.8984 43.5605 33.1798V39.7544C43.5605 40.1659 43.8864 40.4915 44.2984 40.4915Z" fill="#8F2A85"/>
<path fill-rule="evenodd" clip-rule="evenodd" d="M30.4276 44.7881C30.2973 44.9392 30.2217 45.1111 30.2217 45.3065C30.2217 45.5019 30.2973 45.6764 30.4276 45.8275C30.5684 45.9577 30.7535 46.0437 30.9465 46.0437C31.1446 46.0437 31.3271 45.9577 31.4679 45.8275C31.5983 45.6764 31.6739 45.5019 31.6739 45.3065C31.6739 45.1111 31.5983 44.9392 31.4679 44.7881C31.1968 44.525 30.6988 44.525 30.4276 44.7881Z" fill="#8F2A85"/>
<path fill-rule="evenodd" clip-rule="evenodd" d="M30.9491 54.2642C30.5476 54.2642 30.2217 54.5924 30.2217 55.0013C30.2217 55.3947 30.5476 55.7385 30.9491 55.7385C31.3506 55.7385 31.6765 55.3947 31.6765 55.0013C31.6765 54.5924 31.3506 54.2642 30.9491 54.2642Z" fill="#8F2A85"/>
<path fill-rule="evenodd" clip-rule="evenodd" d="M30.9491 49.4287C30.5476 49.4287 30.2217 49.7517 30.2217 50.1424C30.2217 50.554 30.5476 50.8822 30.9491 50.8822C31.3506 50.8822 31.6765 50.554 31.6765 50.1424C31.6765 49.7517 31.3506 49.4287 30.9491 49.4287Z" fill="#8F2A85"/>
<path fill-rule="evenodd" clip-rule="evenodd" d="M30.9491 59.125C30.5476 59.125 30.2217 59.4298 30.2217 59.8622C30.2217 60.2529 30.5476 60.5785 30.9491 60.5785C31.3506 60.5785 31.6765 60.2529 31.6765 59.8622C31.6765 59.4298 31.3506 59.125 30.9491 59.125Z" fill="#8F2A85"/>
<path fill-rule="evenodd" clip-rule="evenodd" d="M30.4276 64.1773C30.2973 64.3101 30.2217 64.5055 30.2217 64.7009C30.2217 64.8936 30.2973 65.0682 30.4276 65.2192C30.5684 65.3495 30.7535 65.4354 30.9465 65.4354C31.1446 65.4354 31.3271 65.3495 31.4679 65.2192C31.5983 65.0682 31.6739 64.8936 31.6739 64.7009C31.6739 64.5055 31.5983 64.3101 31.4679 64.1773C31.1968 63.896 30.6988 63.896 30.4276 64.1773Z" fill="#8F2A85"/>
<path fill-rule="evenodd" clip-rule="evenodd" d="M34.1148 44.7881C33.9845 44.9392 33.8984 45.1111 33.8984 45.3065C33.8984 45.5019 33.9845 45.6764 34.1148 45.8275C34.2426 45.9577 34.4407 46.0437 34.6363 46.0437C34.8318 46.0437 35.0039 45.9577 35.1473 45.8275C35.2854 45.6764 35.3611 45.5019 35.3611 45.3065C35.3611 45.1111 35.2854 44.9392 35.1473 44.7881C34.8839 44.525 34.386 44.525 34.1148 44.7881Z" fill="#8F2A85"/>
<path fill-rule="evenodd" clip-rule="evenodd" d="M34.6363 49.4287C34.2348 49.4287 33.8984 49.7517 33.8984 50.1424C33.8984 50.554 34.2348 50.8822 34.6363 50.8822C35.0378 50.8822 35.3637 50.554 35.3637 50.1424C35.3637 49.7517 35.0378 49.4287 34.6363 49.4287Z" fill="#8F2A85"/>
<path fill-rule="evenodd" clip-rule="evenodd" d="M34.6363 59.125C34.2348 59.125 33.8984 59.4298 33.8984 59.8622C33.8984 60.2529 34.2348 60.5785 34.6363 60.5785C35.0378 60.5785 35.3637 60.2529 35.3637 59.8622C35.3637 59.4298 35.0378 59.125 34.6363 59.125Z" fill="#8F2A85"/>
<path fill-rule="evenodd" clip-rule="evenodd" d="M34.6363 54.2642C34.2348 54.2642 33.8984 54.5924 33.8984 55.0013C33.8984 55.3947 34.2348 55.7385 34.6363 55.7385C35.0378 55.7385 35.3637 55.3947 35.3637 55.0013C35.3637 54.5924 35.0378 54.2642 34.6363 54.2642Z" fill="#8F2A85"/>
<path fill-rule="evenodd" clip-rule="evenodd" d="M34.1148 64.1773C33.9845 64.3101 33.8984 64.5055 33.8984 64.7009C33.8984 64.8936 33.9845 65.0682 34.1148 65.2192C34.2426 65.3495 34.4407 65.4354 34.6363 65.4354C34.8318 65.4354 35.0039 65.3495 35.1473 65.2192C35.2854 65.0682 35.3611 64.8936 35.3611 64.7009C35.3611 64.5055 35.2854 64.3101 35.1473 64.1773C34.8839 63.896 34.386 63.896 34.1148 64.1773Z" fill="#8F2A85"/>
<path fill-rule="evenodd" clip-rule="evenodd" d="M72.8195 69.7771H61.8433V38.0423L72.8195 43.2051V69.7771ZM50.8697 69.7771H55.255V59.626H50.8697V69.7771ZM45.0193 69.7771H49.4045V59.626H45.0193V69.7771ZM39.8962 36.8936V30.0142L50.1424 24.5727L60.3781 30.0142V36.8936V69.7771H56.7228V58.8862C56.7228 58.4747 56.3943 58.1491 55.9954 58.1491H44.2919C43.8799 58.1491 43.554 58.4747 43.554 58.8862V69.7771H39.8962V36.8936ZM27.4678 43.2051L38.431 38.0423V69.7771H27.4678V43.2051ZM73.8623 42.0772L61.8433 36.4377V29.5818C61.8433 29.3239 61.6921 29.0634 61.4548 28.9306L50.4787 23.0957C50.2623 22.9681 50.012 22.9681 49.7956 23.0957L38.822 28.9306C38.5848 29.0634 38.431 29.3239 38.431 29.5818V36.4377L26.425 42.0772C26.1643 42.184 26 42.4445 26 42.7258V70.4908C26 70.905 26.3285 71.2306 26.7378 71.2306H39.1688H44.2919H55.9954H61.1055H73.5469C73.9484 71.2306 74.2743 70.905 74.2743 70.4908V42.7258C74.2743 42.4445 74.11 42.184 73.8623 42.0772Z" fill="#8F2A85"/>
<path fill-rule="evenodd" clip-rule="evenodd" d="M69.3492 46.0451C69.5343 46.0451 69.7194 45.9592 69.8602 45.8289C70.0009 45.6752 70.0792 45.5033 70.0792 45.308C70.0792 45.1126 70.0009 44.9381 69.8602 44.7896C69.589 44.5265 69.1015 44.5265 68.8303 44.7896C68.6895 44.9381 68.6113 45.1126 68.6113 45.308C68.6113 45.5033 68.6895 45.6752 68.8303 45.8289C68.9607 45.9592 69.1562 46.0451 69.3492 46.0451Z" fill="#8F2A85"/>
<path fill-rule="evenodd" clip-rule="evenodd" d="M69.3492 60.578C69.7402 60.578 70.0792 60.2524 70.0792 59.8643C70.0792 59.4319 69.7402 59.1245 69.3492 59.1245C68.9372 59.1245 68.6113 59.4319 68.6113 59.8643C68.6113 60.2524 68.9372 60.578 69.3492 60.578Z" fill="#8F2A85"/>
<path fill-rule="evenodd" clip-rule="evenodd" d="M69.3492 50.8822C69.7402 50.8822 70.0792 50.554 70.0792 50.145C70.0792 49.7517 69.7402 49.4287 69.3492 49.4287C68.9372 49.4287 68.6113 49.7517 68.6113 50.145C68.6113 50.554 68.9372 50.8822 69.3492 50.8822Z" fill="#8F2A85"/>
<path fill-rule="evenodd" clip-rule="evenodd" d="M69.3492 55.739C69.7402 55.739 70.0792 55.3925 70.0792 55.0018C70.0792 54.5929 69.7402 54.2646 69.3492 54.2646C68.9372 54.2646 68.6113 54.5929 68.6113 55.0018C68.6113 55.3925 68.9372 55.739 69.3492 55.739Z" fill="#8F2A85"/>
<path fill-rule="evenodd" clip-rule="evenodd" d="M69.3492 65.4364C69.5343 65.4364 69.7194 65.3505 69.8602 65.2202C70.0009 65.0665 70.0792 64.8946 70.0792 64.7019C70.0792 64.5065 70.0009 64.3085 69.8602 64.1783C69.589 63.8944 69.0884 63.8944 68.8303 64.1783C68.6974 64.3085 68.6113 64.5065 68.6113 64.7019C68.6113 64.8946 68.6974 65.0665 68.8303 65.2202C68.9607 65.3505 69.1458 65.4364 69.3492 65.4364Z" fill="#8F2A85"/>
<path fill-rule="evenodd" clip-rule="evenodd" d="M65.6597 46.0451C65.8448 46.0451 66.0403 45.9592 66.1707 45.8289C66.3115 45.6752 66.3871 45.5033 66.3871 45.308C66.3871 45.1126 66.3115 44.9381 66.1707 44.7896C65.91 44.5265 65.4094 44.5265 65.1383 44.7896C64.9975 44.9381 64.9219 45.1126 64.9219 45.308C64.9219 45.5033 64.9975 45.6752 65.1383 45.8289C65.2686 45.9592 65.4642 46.0451 65.6597 46.0451Z" fill="#8F2A85"/>
<path fill-rule="evenodd" clip-rule="evenodd" d="M65.6597 50.8822C66.0612 50.8822 66.3871 50.554 66.3871 50.145C66.3871 49.7517 66.0612 49.4287 65.6597 49.4287C65.2478 49.4287 64.9219 49.7517 64.9219 50.145C64.9219 50.554 65.2478 50.8822 65.6597 50.8822Z" fill="#8F2A85"/>
<path fill-rule="evenodd" clip-rule="evenodd" d="M65.6597 55.739C66.0612 55.739 66.3871 55.3925 66.3871 55.0018C66.3871 54.5929 66.0612 54.2646 65.6597 54.2646C65.2478 54.2646 64.9219 54.5929 64.9219 55.0018C64.9219 55.3925 65.2478 55.739 65.6597 55.739Z" fill="#8F2A85"/>
<path fill-rule="evenodd" clip-rule="evenodd" d="M65.6597 60.578C66.0612 60.578 66.3871 60.2524 66.3871 59.8643C66.3871 59.4319 66.0612 59.1245 65.6597 59.1245C65.2478 59.1245 64.9219 59.4319 64.9219 59.8643C64.9219 60.2524 65.2478 60.578 65.6597 60.578Z" fill="#8F2A85"/>
<path fill-rule="evenodd" clip-rule="evenodd" d="M65.6597 65.4364C65.8448 65.4364 66.0403 65.3505 66.1707 65.2202C66.3115 65.0665 66.3871 64.8946 66.3871 64.7019C66.3871 64.5065 66.3115 64.3085 66.1707 64.1783C65.8996 63.8944 65.4094 63.8944 65.1383 64.1783C64.9975 64.3085 64.9219 64.5065 64.9219 64.7019C64.9219 64.8946 64.9975 65.0665 65.1383 65.2202C65.2686 65.3505 65.4642 65.4364 65.6597 65.4364Z" fill="#8F2A85"/>
</svg>
