<svg width="185" height="57" viewBox="0 0 185 57" fill="none" xmlns="http://www.w3.org/2000/svg">
<path d="M56.1075 6.24561L65.5257 6.28664C67.7007 6.28664 69.65 6.75858 71.3325 7.6409C73.0151 8.54373 74.3283 9.79539 75.2517 11.4369C76.175 13.0784 76.6264 14.9867 76.6264 17.1822C76.6264 19.3778 76.134 21.286 75.2106 22.907C74.2668 24.528 72.9535 25.7797 71.271 26.662C69.5679 27.5443 67.6391 27.9752 65.4641 27.9752L56.0459 27.9342L56.1075 6.24561ZM65.2179 23.0507C66.921 23.0507 68.2957 22.5377 69.3422 21.4912C70.3887 20.4448 70.9017 18.9879 70.9222 17.1412C70.9222 15.2945 70.4297 13.8171 69.3832 12.7706C68.3573 11.7242 66.9825 11.1702 65.2794 11.1702L61.7297 11.1496L61.6681 23.0301L65.2179 23.0507Z" fill="#8F2A85"/>
<path d="M94.2718 21.1831L83.0479 21.1216C83.2736 21.9834 83.7045 22.6605 84.3611 23.1324C85.0177 23.6044 85.8385 23.8301 86.8234 23.8301C87.5621 23.8301 88.1982 23.7275 88.7522 23.5018C89.2857 23.2761 89.8397 22.9067 90.3937 22.3937L93.2253 25.6357C91.7274 27.4414 89.5114 28.3442 86.6387 28.3237C84.833 28.3237 83.2531 27.9339 81.8783 27.1952C80.5241 26.436 79.4571 25.41 78.7184 24.0763C77.9797 22.7426 77.6104 21.2652 77.6104 19.5826C77.6104 17.9411 77.9797 16.4432 78.7184 15.1505C79.4571 13.8373 80.4625 12.8114 81.7757 12.0932C83.0684 11.3545 84.5253 10.9852 86.1257 11.0057C87.6647 11.0057 89.06 11.375 90.3116 12.0727C91.5633 12.7703 92.5482 13.7758 93.2663 15.089C93.9845 16.4022 94.3539 17.9616 94.3333 19.7468C94.3539 19.7673 94.3333 20.2598 94.2718 21.1831ZM84.0533 15.9303C83.4993 16.4432 83.13 17.1409 82.9658 18.0232L89.2857 18.0437C89.142 17.1614 88.7932 16.4432 88.2392 15.9303C87.6852 15.4173 86.9875 15.1505 86.1463 15.1505C85.3255 15.171 84.6279 15.4173 84.0533 15.9303Z" fill="#8F2A85"/>
<path d="M96.216 5.12663L96.1094 28.1079L101.526 28.1331L101.633 5.15177L96.216 5.12663Z" fill="#8F2A85"/>
<path d="M126.055 7.53817C127.389 8.19478 128.395 9.11813 129.113 10.3493C129.831 11.5599 130.18 12.9757 130.18 14.6172C130.18 16.2382 129.81 17.654 129.072 18.8441C128.354 20.0342 127.307 20.9576 125.973 21.5937C124.64 22.2298 123.08 22.5581 121.275 22.5376L117.807 22.517L117.786 28.1803L112.144 28.1598L112.246 6.4917L121.357 6.53274C123.162 6.55326 124.722 6.88156 126.055 7.53817ZM123.593 16.9153C124.188 16.3819 124.475 15.6021 124.496 14.5762C124.496 13.5708 124.209 12.7705 123.634 12.2165C123.039 11.6625 122.177 11.3752 121.008 11.3752L117.868 11.3547L117.848 17.6951L120.987 17.7156C122.116 17.7361 122.998 17.4694 123.593 16.9153Z" fill="#8F2A85"/>
<path d="M132.276 5.29118L132.169 28.2725L137.586 28.2976L137.693 5.31633L132.276 5.29118Z" fill="#8F2A85"/>
<path d="M152.873 13.2223C154.207 14.4944 154.884 16.4437 154.864 19.0702L154.823 28.3858L149.775 28.3653L149.796 26.1903C149.016 27.8113 147.477 28.632 145.22 28.6115C144.03 28.6115 142.983 28.3653 142.122 27.9139C141.239 27.4624 140.603 26.8469 140.152 26.0671C139.7 25.2874 139.495 24.4051 139.495 23.4202C139.495 21.8402 140.07 20.6091 141.198 19.7268C142.327 18.865 144.05 18.4341 146.389 18.4341L149.467 18.4546C149.385 16.6694 148.298 15.7871 146.205 15.7666C145.466 15.7666 144.707 15.8897 143.948 16.136C143.189 16.3822 142.532 16.7515 141.998 17.1824L140.193 13.1812C141.055 12.5656 142.101 12.0937 143.312 11.7654C144.543 11.4371 145.774 11.2729 147.005 11.2729C149.57 11.2935 151.519 11.9296 152.873 13.2223ZM148.4 24.4256C148.872 24.0973 149.221 23.6254 149.426 22.9688V21.5119L147.087 21.4914C145.507 21.4914 144.727 22.0454 144.707 23.174C144.707 23.6869 144.892 24.0973 145.24 24.4051C145.589 24.7129 146.082 24.877 146.718 24.877C147.374 24.8976 147.928 24.7539 148.4 24.4256Z" fill="#8F2A85"/>
<path d="M168.181 27.7706C167.73 28.0784 167.176 28.3246 166.519 28.4683C165.863 28.6324 165.165 28.7145 164.427 28.7145C162.416 28.694 160.877 28.1605 159.789 27.073C158.722 26.006 158.189 24.385 158.189 22.2715L158.209 16.6288L155.952 16.6083L155.973 12.2172L158.23 12.2377L158.25 7.86719L163.667 7.88771L163.647 12.2583L167.176 12.2788L167.156 16.6698L163.626 16.6493L163.606 22.21C163.606 22.805 163.749 23.277 164.037 23.6258C164.324 23.9746 164.714 24.1388 165.206 24.1388C165.842 24.1388 166.376 23.9746 166.868 23.6258L168.181 27.7706Z" fill="#8F2A85"/>
<path d="M182.053 13.3658C183.387 14.638 184.064 16.5873 184.044 19.2137L184.002 28.5294L178.975 28.5088V26.3338C178.196 27.9548 176.657 28.7756 174.42 28.7551C173.23 28.7551 172.184 28.5088 171.322 28.0574C170.439 27.606 169.783 26.9904 169.352 26.2107C168.901 25.431 168.695 24.5487 168.695 23.5638C168.695 21.9838 169.27 20.7526 170.398 19.8703C171.527 18.988 173.251 18.5776 175.59 18.5776L178.668 18.5982C178.585 16.813 177.498 15.9307 175.405 15.9102C174.666 15.9102 173.907 16.0333 173.148 16.2795C172.389 16.5257 171.732 16.8951 171.199 17.326L169.393 13.3248C170.255 12.7092 171.281 12.2373 172.512 11.909C173.743 11.5807 174.974 11.4165 176.205 11.4165C178.77 11.437 180.719 12.0731 182.053 13.3658ZM177.58 24.5487C178.052 24.2204 178.401 23.7484 178.606 23.0918V21.635L176.267 21.6144C174.687 21.6144 173.907 22.1685 173.887 23.297C173.887 23.81 174.051 24.2204 174.42 24.5281C174.789 24.8359 175.282 25.0001 175.897 25.0001C176.554 25.0411 177.108 24.877 177.58 24.5487Z" fill="#8F2A85"/>
<path d="M57.3372 50.1973C56.3113 49.8074 55.4905 49.2739 54.9365 48.6173L55.5726 47.2631C56.1266 47.8581 56.8653 48.3506 57.7681 48.7404C58.6915 49.1098 59.6354 49.315 60.5998 49.315C61.9745 49.315 63.0005 49.0482 63.6776 48.5147C64.3547 47.9812 64.7036 47.2631 64.7036 46.4013C64.7036 45.7447 64.5189 45.2112 64.1496 44.8008C63.7802 44.4109 63.3288 44.1031 62.7953 43.8774C62.2618 43.6517 61.5026 43.426 60.5587 43.1593C59.4097 42.831 58.5068 42.5232 57.8092 42.2359C57.1321 41.9486 56.537 41.4972 56.0651 40.8817C55.5931 40.2866 55.3469 39.4658 55.3469 38.4399C55.3469 37.5986 55.5521 36.8394 55.9625 36.1623C56.3729 35.4852 57.0089 34.9312 57.8502 34.5208C58.6915 34.1104 59.738 33.9052 60.9896 33.9257C61.8719 33.9257 62.7132 34.0694 63.5545 34.3361C64.3958 34.6028 65.1139 34.9722 65.709 35.4236L65.155 36.8189C64.5189 36.3675 63.8418 36.0187 63.1031 35.7724C62.3849 35.5467 61.6668 35.4236 60.9691 35.4236C59.6354 35.4236 58.6299 35.6904 57.9528 36.2444C57.2757 36.7984 56.9269 37.5165 56.9269 38.3989C56.9269 39.076 57.1115 39.6095 57.4809 39.9993C57.8502 40.4097 58.3222 40.7175 58.8762 40.9227C59.4302 41.1279 60.1894 41.3741 61.1333 41.6409C62.2413 41.9486 63.1646 42.2564 63.8418 42.5437C64.5394 42.831 65.114 43.2824 65.5859 43.8774C66.0578 44.4725 66.3041 45.2727 66.3041 46.2782C66.3041 47.1194 66.0989 47.8786 65.668 48.5558C65.2576 49.2329 64.6215 49.7869 63.7597 50.1768C62.8979 50.5871 61.8514 50.7718 60.5998 50.7718C59.4507 50.7923 58.3632 50.5871 57.3372 50.1973Z" fill="#7ACC00"/>
<path d="M76.4421 39.3845C77.2424 40.2052 77.6322 41.4159 77.6322 43.0163L77.5912 50.752H76.1138V48.8027C75.765 49.4388 75.252 49.9518 74.5749 50.3211C73.8978 50.6904 73.0975 50.8546 72.1537 50.8546C70.8815 50.8546 69.8555 50.5058 69.0963 49.8492C68.3371 49.1926 67.9678 48.3102 67.9678 47.2022C67.9678 46.1352 68.3371 45.2939 69.0348 44.6373C69.7529 44.0012 70.861 43.6729 72.4204 43.6729L76.0728 43.6935V42.9343C76.0728 41.8468 75.806 41.0465 75.252 40.472C74.698 39.8974 73.8978 39.6307 72.8308 39.6102C72.1126 39.6102 71.3944 39.7333 70.7378 40C70.0607 40.2668 69.4862 40.6156 69.0142 41.067L68.3166 39.7949C68.9116 39.2614 69.6093 38.851 70.4095 38.5637C71.2303 38.2764 72.0921 38.1328 72.9949 38.1328C74.4928 38.1533 75.6419 38.5637 76.4421 39.3845ZM74.657 48.8642C75.2931 48.4333 75.7445 47.7973 76.0523 46.9765L76.0728 44.9451L72.4614 44.9246C70.4916 44.9041 69.5067 45.6633 69.5067 47.1407C69.5067 47.8588 69.7529 48.4333 70.2659 48.8642C70.7789 49.2951 71.497 49.5003 72.3999 49.5003C73.2617 49.5209 74.0209 49.2951 74.657 48.8642Z" fill="#7ACC00"/>
<path d="M81.334 33.1584L81.2432 50.7637L82.7821 50.7716L82.873 33.1663L81.334 33.1584Z" fill="#7ACC00"/>
<path d="M96.9605 38.3579L96.8989 50.8335H95.4216L95.4421 48.5559C95.0317 49.3151 94.4777 49.9101 93.7595 50.3205C93.0414 50.7309 92.2411 50.9361 91.3178 50.9361C89.8199 50.9361 88.6503 50.4641 87.7885 49.5613C86.9267 48.638 86.4958 47.3042 86.5163 45.5601L86.5574 38.3169H88.0963L88.0552 45.3754C88.0552 46.6886 88.3425 47.6941 88.9376 48.3712C89.5326 49.0483 90.3739 49.3972 91.4819 49.3972C92.6925 49.3972 93.6364 49.0073 94.3546 48.2071C95.0522 47.4068 95.401 46.2988 95.4216 44.883L95.4626 38.3374L96.9605 38.3579Z" fill="#7ACC00"/>
<path d="M111.262 33.3101L111.18 50.9154H109.703L109.723 48.4531C109.252 49.2944 108.636 49.9304 107.877 50.3613C107.118 50.7922 106.256 51.018 105.291 51.018C104.204 51.018 103.239 50.7512 102.378 50.1972C101.516 49.6637 100.839 48.9045 100.346 47.9401C99.8538 46.9757 99.6076 45.8677 99.6281 44.6365C99.6281 43.4054 99.8949 42.2974 100.387 41.3535C100.88 40.3891 101.577 39.6504 102.46 39.1169C103.322 38.5834 104.306 38.3372 105.373 38.3372C106.297 38.3372 107.138 38.5424 107.897 38.9733C108.636 39.4042 109.252 40.0198 109.723 40.82L109.765 33.3306L111.262 33.3101ZM107.569 48.9045C108.226 48.4941 108.739 47.9401 109.108 47.2014C109.477 46.4627 109.682 45.6215 109.682 44.6571C109.682 43.7132 109.498 42.8719 109.128 42.1127C108.759 41.374 108.267 40.7995 107.61 40.3891C106.974 39.9787 106.235 39.7735 105.435 39.7735C104.614 39.7735 103.896 39.9582 103.239 40.3686C102.583 40.779 102.07 41.333 101.701 42.0717C101.331 42.8104 101.147 43.6516 101.126 44.5955C101.126 45.5394 101.311 46.4012 101.66 47.1399C102.029 47.8785 102.542 48.4531 103.178 48.8635C103.814 49.2738 104.553 49.479 105.373 49.479C106.194 49.4995 106.933 49.3149 107.569 48.9045Z" fill="#7ACC00"/>
<path d="M45.1292 13.8788C43.8776 11.0882 42.1129 8.60541 39.8969 6.49196C37.6603 4.3785 35.0954 2.73698 32.2638 1.62895C29.3296 0.479891 26.2107 -0.0741221 23.0303 0.00795389C19.8293 0.0695109 16.7515 0.767157 13.8788 2.08037C11.0882 3.33203 8.60541 5.09666 6.49196 7.31272C4.3785 9.52877 2.73698 12.1142 1.62895 14.9458C0.479891 17.88 -0.0741221 20.9784 0.00795389 24.1793C0.0900299 27.3598 0.787676 30.4376 2.08037 33.3308C3.33203 36.1009 5.09666 38.5837 7.31272 40.6971C9.52877 42.8106 12.3604 44.4521 15.2125 45.5601C17.7569 46.5656 20.1781 47.1196 23.4201 47.1811L23.6048 54.9373C23.6048 55.4708 23.6664 55.9222 24.1588 56.1274C24.323 56.189 24.364 56.23 24.5282 56.23C24.877 56.2095 25.1232 56.0864 25.3694 55.8196L40.1226 40.4919C40.3278 40.2867 40.5125 40.1021 40.6971 39.8969C42.8106 37.6808 44.4521 35.0954 45.5601 32.2638C46.7297 29.3296 47.2632 26.2312 47.1811 23.0303C47.1196 19.8293 46.4219 16.7515 45.1292 13.8788ZM24.0767 42.7285C13.53 42.9953 4.74784 34.6235 4.48109 24.0767C4.21435 13.53 12.5861 4.72732 23.1329 4.46058C33.6796 4.19383 42.4823 12.5656 42.7285 23.1123C42.9747 33.6796 34.603 42.4618 24.0767 42.7285Z" fill="#8F2A85"/>
<path d="M33.8639 19.6857H27.4619V13.3864C27.4619 11.2319 25.6563 9.48779 23.5018 9.48779C21.3473 9.48779 19.5416 11.2319 19.5416 13.3864V19.6857H13.3859C11.2314 19.6857 9.4873 21.594 9.4873 23.7485C9.4873 25.903 11.2314 27.8318 13.4064 27.8113H19.5416V33.8233C19.5416 35.9778 21.3473 37.7219 23.5018 37.7219C25.6563 37.7219 27.4619 35.9778 27.4619 33.8233V27.8113H33.8639C36.0184 27.8113 37.7625 25.8825 37.7625 23.728C37.7625 21.594 35.9978 19.6857 33.8639 19.6857Z" fill="#7ACC00"/>
</svg>
