<svg width="23" height="21" viewBox="0 0 23 21" fill="none" xmlns="http://www.w3.org/2000/svg">
<path d="M22.8571 6.59053C22.8571 6.49167 22.8338 6.39752 22.7824 6.31279L19.3823 0.287159C19.2843 0.11298 19.0974 0 18.8966 0H3.95587C3.75504 0 3.56822 0.108273 3.47014 0.287159L0.0747271 6.31279C0.0280227 6.39752 0 6.49167 0 6.59053C0 7.94159 0.807987 9.09964 1.96159 9.61276V19.5503C1.96159 19.861 2.21379 20.1152 2.52204 20.1152H5.61854C5.62321 20.1152 5.62788 20.1152 5.63255 20.1152H9.97607C9.98074 20.1152 9.98541 20.1152 9.99008 20.1152H20.3304C20.6387 20.1152 20.8909 19.861 20.8909 19.5503V9.68337C20.8909 9.65983 20.8909 9.641 20.8862 9.62217C22.0445 9.10905 22.8571 7.94629 22.8571 6.59053ZM4.2828 1.13451H18.5697L21.2272 5.84674H1.62998L4.2828 1.13451ZM16.2672 6.97184C16.0897 7.98866 15.207 8.7607 14.1468 8.7607C13.0866 8.7607 12.2039 7.98866 12.0264 6.97184H16.2672ZM10.8354 6.97184C10.658 7.98866 9.77524 8.7607 8.71505 8.7607C7.65486 8.7607 6.77214 7.98866 6.59 6.97184H10.8354ZM1.15827 6.97184H5.4037C5.22623 7.98866 4.33884 8.7607 3.27865 8.7607C2.21846 8.7654 1.33575 7.98866 1.15827 6.97184ZM3.08249 18.9901V9.8905C3.14788 9.89521 3.21326 9.89521 3.27865 9.89521C4.4089 9.89521 5.40837 9.31618 5.99685 8.43588C6.58532 9.31618 7.5848 9.89521 8.71505 9.89521C9.84529 9.89521 10.8401 9.31618 11.4332 8.43588C12.0217 9.31618 13.0212 9.89521 14.1468 9.89521C15.277 9.89521 16.2718 9.31618 16.8603 8.43588C17.4488 9.31618 18.4482 9.89521 19.5785 9.89521C19.6439 9.89521 19.7046 9.8905 19.77 9.8905V18.9854L3.08249 18.9901ZM19.5785 8.7654C18.5183 8.7654 17.6356 7.99337 17.4581 6.97655H21.7035C21.5214 7.98866 20.6387 8.7654 19.5785 8.7654Z" fill="white"/>
</svg>
