<svg width="100" height="100" viewBox="0 0 100 100" fill="none" xmlns="http://www.w3.org/2000/svg">
<circle cx="50" cy="50" r="50" fill="white"/>
<path fill-rule="evenodd" clip-rule="evenodd" d="M71.5467 48.43C71.1867 47.84 62.5467 34 49.9967 34C37.4467 34 28.8067 47.84 28.4467 48.43C27.8511 49.3955 27.8511 50.6145 28.4467 51.58C28.8067 52.17 37.4467 65.96 49.9867 66H50.0467C62.5567 66 71.1967 52.16 71.5567 51.57C72.1451 50.605 72.1413 49.3912 71.5467 48.43ZM50.0467 63C39.0467 63 31.0467 50 31.0467 50C31.0467 50 39.0467 37 50.0467 37C61.0467 37 69.0467 50 69.0467 50C69.0467 50 61.0167 63 50.0467 63Z" fill="#8F2A85"/>
<circle cx="50" cy="50" r="7" stroke="#8F2A85" stroke-width="2"/>
</svg>
