<svg width="21" height="20" viewBox="0 0 21 20" fill="none" xmlns="http://www.w3.org/2000/svg">
<path fill-rule="evenodd" clip-rule="evenodd" d="M17.9773 3.01836C19.5752 4.61395 20.6152 6.61899 20.9914 8.82242C21.0463 9.13057 20.835 9.42605 20.5264 9.47248C20.523 9.47291 20.5196 9.47333 20.5163 9.47375C20.4865 9.47751 20.4596 9.48092 20.4291 9.48092C20.1544 9.48092 19.9134 9.28675 19.8669 9.00815C19.533 7.0411 18.603 5.24712 17.1741 3.82037C15.7453 2.39785 13.9487 1.46498 11.9788 1.13151C11.666 1.07664 11.4589 0.785377 11.5096 0.473013C11.5645 0.16487 11.8562 -0.0461871 12.1648 0.00868773C14.3715 0.384369 16.3794 1.42277 17.9773 3.01836ZM15.8147 12.2971C15.4047 11.8683 14.9101 11.6391 14.3859 11.6391C13.866 11.6391 13.3671 11.8641 12.9402 12.2929L11.6044 13.6302C11.5317 13.5909 11.4591 13.5535 11.3877 13.5167L11.3875 13.5166C11.3509 13.4978 11.3147 13.4791 11.2789 13.4604C11.1267 13.384 10.983 13.3118 10.8604 13.2354C9.60909 12.4372 8.47195 11.3971 7.38131 10.0513C6.8529 9.38051 6.49781 8.81586 6.23995 8.24273C6.55314 7.95504 6.84563 7.65695 7.12989 7.36725L7.1299 7.36725L7.22068 7.27477C7.27986 7.21533 7.33904 7.15483 7.39822 7.09433C7.45741 7.03384 7.51659 6.97334 7.57577 6.9139C8.4635 6.02236 8.4635 4.8676 7.57577 3.97606L6.42172 2.81705C6.29068 2.68544 6.1554 2.54959 6.02859 2.41373C5.77495 2.15052 5.50863 1.87881 5.23386 1.62408C4.82381 1.21652 4.33345 1 3.81772 1C3.30199 1 2.80317 1.21652 2.38044 1.62408L2.37199 1.63257L0.934714 3.08876C0.393622 3.63218 0.0850311 4.29446 0.0173946 5.06289C-0.0840601 6.30256 0.279486 7.45732 0.558486 8.21301C1.24331 10.0683 2.26631 11.7877 3.79236 13.6302C5.6439 15.8506 7.87168 17.6039 10.4165 18.8394C11.3888 19.3021 12.6866 19.8498 14.1365 19.9432C14.2253 19.9474 14.3183 19.9517 14.4028 19.9517C15.3793 19.9517 16.1994 19.5993 16.842 18.8988C16.8441 18.8945 16.8473 18.8914 16.8504 18.8882C16.8536 18.885 16.8568 18.8818 16.8589 18.8776C17.0624 18.6299 17.2949 18.4041 17.5396 18.1665L17.5986 18.1091C17.7804 17.9351 17.9664 17.7525 18.1482 17.5615C18.5667 17.1242 18.7865 16.6147 18.7865 16.0926C18.7865 15.5661 18.5625 15.0609 18.1355 14.6364L15.8147 12.2971ZM16.9087 17.1913L16.9087 17.1913L16.8124 17.2855C16.5376 17.5487 16.2586 17.8247 15.9965 18.1346C15.5696 18.5931 15.0665 18.8096 14.4071 18.8096C14.3436 18.8096 14.276 18.8096 14.2126 18.8054C12.9571 18.7247 11.7904 18.2323 10.9153 17.812C8.52268 16.6487 6.42172 14.9972 4.67586 12.9042C3.23435 11.1593 2.27053 9.54608 1.63222 7.81394C1.23908 6.75682 1.09535 5.93321 1.15876 5.15629C1.20103 4.65957 1.39126 4.24776 1.74212 3.89539L3.18363 2.4477C3.39076 2.25241 3.61058 2.14627 3.82617 2.14627C4.09249 2.14627 4.30808 2.3076 4.44336 2.44345L4.45604 2.45619C4.7139 2.69818 4.95908 2.94866 5.21695 3.21612C5.28297 3.28457 5.35006 3.35301 5.41769 3.42199L5.41774 3.42204C5.48433 3.48997 5.55143 3.55843 5.61854 3.62793L6.77259 4.78694C7.22068 5.23695 7.22068 5.65301 6.77259 6.10302C6.73157 6.14422 6.69103 6.18541 6.65064 6.22644C6.57032 6.30805 6.49061 6.38903 6.40904 6.46813C6.05395 6.83324 5.71577 7.17287 5.34799 7.50402C5.345 7.50703 5.34201 7.5095 5.3392 7.51182L5.3392 7.51182C5.33408 7.51605 5.32959 7.51976 5.32686 7.52525C4.96331 7.89036 5.03095 8.24697 5.10704 8.48896L5.11972 8.52717C5.41986 9.25739 5.84259 9.94515 6.48513 10.7645L6.48936 10.7688C7.65609 12.2122 8.88623 13.3373 10.2432 14.1991C10.4165 14.3095 10.594 14.3986 10.7631 14.4835C10.9153 14.5599 11.059 14.6321 11.1816 14.7085C11.1901 14.7128 11.1985 14.7181 11.207 14.7234C11.2155 14.7287 11.2239 14.734 11.2324 14.7383C11.3761 14.8104 11.5114 14.8444 11.6509 14.8444C12.0017 14.8444 12.2215 14.6236 12.2934 14.5515L13.7391 13.0995C13.8829 12.9552 14.1111 12.7811 14.3775 12.7811C14.6396 12.7811 14.8551 12.9467 14.9862 13.091L14.9946 13.0995L17.3239 15.4388C17.7593 15.8718 17.7593 16.3176 17.3281 16.7676C17.1927 16.914 17.0545 17.049 16.9087 17.1913ZM11.8096 4.75765C12.9171 4.94338 13.9232 5.4668 14.7264 6.26882C15.5296 7.07083 16.0495 8.07546 16.2398 9.1814C16.2863 9.46 16.5272 9.65417 16.802 9.65417C16.8324 9.65417 16.8594 9.65076 16.8891 9.647L16.8992 9.64573C17.212 9.59507 17.4192 9.29959 17.3685 8.98723C17.1402 7.64913 16.5061 6.42922 15.538 5.46258C14.57 4.49594 13.3483 3.86277 12.0083 3.63483C11.6955 3.58417 11.4038 3.79101 11.3488 4.09915C11.2939 4.40729 11.4968 4.707 11.8096 4.75765Z" fill="white"/>
</svg>
